Coordinates
version=1
nRows=19
nColumns=36
inDegrees=yes

Units are S.I. units (second, meters, Newtons, ...)
If the header above contains a line with 'inDegrees', this indicates whether rotational values are in degrees (yes) or radians (no).

endheader
time	pelvis_tilt	pelvis_list	pelvis_rotation	pelvis_tx	pelvis_ty	pelvis_tz	hip_flexion_r	hip_adduction_r	hip_rotation_r	knee_angle_r	knee_angle_r_beta	ankle_angle_r	subtalar_angle_r	mtp_angle_r	hip_flexion_l	hip_adduction_l	hip_rotation_l	knee_angle_l	knee_angle_l_beta	ankle_angle_l	subtalar_angle_l	mtp_angle_l	lumbar_extension	lumbar_bending	lumbar_rotation	arm_flex_r	arm_add_r	arm_rot_r	elbow_flex_r	pro_sup_r	arm_flex_l	arm_add_l	arm_rot_l	elbow_flex_l	pro_sup_l
      1.28000000	     -4.80870059	     -1.59148855	    -10.08178808	      1.18660523	      1.16460934	     -0.21415087	     21.74567661	      5.95509858	      4.38618724	     13.66126055	      0.23843398	      2.45799935	     -6.16117310	     -7.05008083	     -7.02887328	      1.97130682	    -14.23559717	      0.71363858	      0.01245534	      3.71171164	      8.03632467	     -7.05008083	    -17.60191017	    -20.92437006	     -2.92742020	    -21.43987415	    -10.27489231	     -4.05134941	     48.53178926	    110.13441891	      3.18864166	    -13.77720059	    -15.25852782	     54.60932897	    106.69707608
      1.29000000	     -5.00526327	     -1.52039300	    -10.00792820	      1.19551886	      1.16330259	     -0.21405208	     21.90198929	      6.08061535	      3.40068128	     11.62228093	      0.20284707	      2.93446463	     -4.15541859	     -7.06574215	     -7.30626771	      2.05794528	    -14.10276895	      0.69846153	      0.01219045	      3.83146873	      8.15534220	     -7.06574215	    -17.49206563	    -20.68014065	     -2.87356196	    -21.29459260	    -10.19328230	     -4.23226299	     48.54048728	    110.21080358	      3.07924410	    -13.72755995	    -14.97959026	     54.43766081	    106.81368831
      1.30000000	     -5.36874103	     -1.40494582	     -9.95182767	      1.20445651	      1.16169644	     -0.21383732	     22.17270826	      6.27050568	      2.92498425	      9.58576335	      0.16730313	      2.98318539	     -3.12560060	     -7.06912400	     -7.37698338	      2.14511587	    -13.95061822	      0.73125057	      0.01276273	      3.84714005	      8.22733233	     -7.06912400	    -17.15693586	    -20.44209980	     -2.83084932	    -21.15876603	    -10.13275517	     -4.32219929	     48.55408880	    110.16209832	      2.85409025	    -13.63096252	    -14.83563631	     54.32943914	    106.80298851
      1.31000000	     -5.61282878	     -1.35464114	     -9.85914833	      1.21361219	      1.16021349	     -0.21368709	     22.27187558	      6.47507285	      2.28973486	      7.63266515	      0.13321514	      3.09750075	     -1.66067287	     -7.07284479	     -7.60272475	      2.18895620	    -13.73051092	      0.75645838	      0.01320269	      3.92901525	      8.29357088	     -7.07284479	    -16.97497552	    -20.11628535	     -2.80803178	    -20.97732370	    -10.07610888	     -4.44723824	     48.48635932	    110.12611271	      2.64776409	    -13.54502168	    -14.63213383	     54.11312735	    106.81199495
      1.32000000	     -5.58008464	     -1.29325785	     -9.70780067	      1.22314887	      1.15895241	     -0.21382017	     22.32987593	      6.47675951	      0.11468672	      6.32678441	      0.11042322	      4.55832948	      2.29143582	     -7.09146997	     -8.15450149	      2.31457981	    -13.52213490	      0.72784058	      0.01270321	      4.06677696	      8.39108728	     -7.09146997	    -17.09188340	    -19.78481846	     -2.66129330	    -20.94056819	     -9.97652457	     -4.82739472	     48.55275593	    110.23938842	      2.62880054	    -13.46137838	    -14.09056989	     53.61427730	    107.05815055
      1.33000000	     -5.84553595	     -1.18059593	     -9.65711864	      1.23258557	      1.15727860	     -0.21365485	     22.48860390	      6.67030330	     -0.27626632	      4.80274233	      0.08382367	      4.57596497	      3.27696540	     -7.09538884	     -8.33685868	      2.42931031	    -13.36819329	      0.79498708	      0.01387514	      4.09625116	      8.42197391	     -7.09538884	    -16.82143422	    -19.48858893	     -2.57284086	    -20.78239500	     -9.93588565	     -4.94790182	     48.49301070	    110.21083209	      2.35900764	    -13.32998985	    -13.96874132	     53.37073143	    107.06384071
      1.34000000	     -5.83675451	     -1.12356453	     -9.58724059	      1.24238738	      1.15589942	     -0.21355641	     22.41254022	      6.81742352	     -1.24006921	      3.62737831	      0.06330969	      4.89214792	      5.31071042	     -7.10446870	     -8.85431218	      2.54271711	    -13.22630475	      0.81853294	      0.01428609	      4.19085630	      8.44957207	     -7.10446870	    -16.86150904	    -19.15233359	     -2.41090968	    -20.65412488	     -9.87851107	     -5.18213001	     48.41642541	    110.23280437	      2.23850542	    -13.18899888	    -13.66999200	     52.90404935	    107.14896219
      1.35000000	     -6.05245604	     -0.96320548	     -9.56965182	      1.25230326	      1.15407733	     -0.21339833	     22.61649212	      6.95023904	     -1.51369743	      2.78077649	      0.04853371	      5.11421554	      5.89433845	     -7.10696967	     -9.09493199	      2.72532595	    -13.18944512	      0.88993551	      0.01553230	      4.13857096	      8.51939555	     -7.10696967	    -16.58213033	    -18.88268540	     -2.23368886	    -20.58973894	     -9.85366715	     -5.27062742	     48.48205106	    110.20114156	      1.88484993	    -13.02131818	    -13.56867506	     52.68714324	    107.13473574
      1.36000000	     -5.93753550	     -0.89501173	     -9.55904665	      1.26265050	      1.15261907	     -0.21344203	     22.57927270	      7.02539788	     -2.59512270	      2.45767502	      0.04289452	      5.92216934	      8.37835287	     -7.12325721	     -9.72696961	      2.88031442	    -13.28191729	      0.95642638	      0.01669279	      4.19894348	      8.85183247	     -7.12325721	    -16.66227143	    -18.49665086	     -1.85949012	    -20.62859773	     -9.80773957	     -5.80751588	     48.63928519	    110.30513741	      1.80630070	    -12.82583678	    -13.09295680	     52.02900453	    107.32775355
      1.37000000	     -6.01627243	     -0.73164609	     -9.57874357	      1.27304084	      1.15085030	     -0.21343995	     22.66206510	      7.08825896	     -2.41373167	      2.23545720	      0.03901609	      6.01123125	      8.71405150	     -7.12669272	    -10.11705261	      3.09717861	    -13.25053657	      1.06826483	      0.01864474	      4.19955010	      8.94631453	     -7.12669272	    -16.49126378	    -18.18806119	     -1.69485922	    -20.50888746	     -9.85552628	     -5.92659963	     48.65356502	    110.26178017	      1.39444952	    -12.60573903	    -13.03232256	     51.72442312	    107.29605413
      1.38000000	     -5.96927466	     -0.60245256	     -9.54356193	      1.28370901	      1.14916323	     -0.21356768	     22.60503204	      7.11115217	     -2.16656249	      2.30648132	      0.04025569	      6.23745111	      8.94238422	     -7.13198897	    -10.63875389	      3.28583738	    -13.23112251	      1.21373003	      0.02118359	      4.19679607	      9.14606608	     -7.13198897	    -16.45812712	    -17.82324796	     -1.50154978	    -20.44824738	     -9.90014603	     -6.10816168	     48.69746559	    110.23532293	      1.05311654	    -12.34880141	    -12.95533759	     51.30636093	    107.27822530
      1.39000000	     -5.99924941	     -0.42859312	     -9.34224111	      1.29444021	      1.14736522	     -0.21391550	     22.65895578	      7.01104223	     -2.03497590	      2.63270441	      0.04594936	      6.21247310	      8.93639979	     -7.13282816	    -10.95538276	      3.44682300	    -13.16392133	      1.57537853	      0.02749554	      4.17000617	      9.17604861	     -7.13282816	    -16.39530612	    -17.46677503	     -1.40218827	    -20.42638054	     -9.91506468	     -6.13600388	     48.69754644	    110.14110548	      0.66354556	    -12.07441553	    -12.87286690	     51.16428034	    107.20641258
      1.40000000	     -5.98552934	     -0.37009749	     -9.11699072	      1.30529230	      1.14550593	     -0.21453436	     22.70780414	      6.97850824	     -1.58619057	      3.36170452	      0.05867281	      6.39278464	      8.65120991	     -7.13557876	    -11.41541773	      3.50375537	    -12.84528808	      1.80292052	      0.03146690	      4.20487276	      9.42875622	     -7.13557876	    -16.37149930	    -16.86929090	     -1.55482924	    -20.27558626	    -10.06822383	     -6.38240011	     48.79805739	    110.06335031	      0.15982678	    -11.84644157	    -12.80637959	     50.61511644	    107.12528240
      1.41000000	     -6.07371894	     -0.24004493	     -8.70223238	      1.31607202	      1.14353476	     -0.21532741	     22.77093301	      6.85268822	     -0.66509739	      4.01661644	      0.07010318	      5.97709523	      7.00724730	     -7.15147876	    -11.61357122	      3.53652488	    -12.39332646	      2.30642060	      0.04025463	      4.29489832	      9.63124931	     -7.15147876	    -16.28441266	    -16.29333024	     -1.54064724	    -20.36833342	    -10.00666913	     -7.00769144	     48.95024236	    110.33954487	     -0.04655503	    -11.57429201	    -12.51136525	     49.91400609	    107.37349694
      1.42000000	     -6.21097754	     -0.13314829	     -8.14957146	      1.32691898	      1.14153136	     -0.21633199	     22.95555343	      6.66298186	     -0.27854089	      4.88447111	      0.08525010	      5.50990277	      5.95499117	     -7.16257544	    -11.69188742	      3.48893711	    -11.83712661	      2.94502346	      0.05140036	      4.35502666	      9.77305243	     -7.16257544	    -16.17895541	    -15.65321533	     -1.83681849	    -20.30140544	    -10.06777246	     -7.23565148	     48.94608409	    110.49248255	     -0.47507569	    -11.32926223	    -12.41870694	     49.42942250	    107.49328812
      1.43000000	     -6.30150907	     -0.06037776	     -7.51331584	      1.33795267	      1.13967236	     -0.21744525	     23.09455479	      6.43843156	     -0.21241664	      5.82529501	      0.10167058	      4.98689046	      5.13620785	     -7.16651970	    -11.77845840	      3.37099182	    -11.27703960	      3.67675823	      0.06417154	      4.29341206	      9.96911711	     -7.16651970	    -16.11931777	    -14.94882045	     -2.22074713	    -20.21768225	    -10.13359378	     -7.44795213	     48.95977307	    110.52653413	     -0.93443643	    -11.07683896	    -12.35874709	     48.93668673	    107.50776010
      1.44000000	     -6.58918811	      0.00332503	     -6.94456439	      1.34902777	      1.13768772	     -0.21837115	     23.37714823	      6.29879277	      0.30308809	      6.63993859	      0.11588879	      3.70651111	      3.55358647	     -7.17537153	    -11.57854163	      3.19657909	    -10.83861376	      4.57525168	      0.07985321	      4.38395648	     10.25395134	     -7.17537153	    -15.78593716	    -14.23828938	     -2.45655526	    -20.14988010	    -10.15396079	     -7.74874334	     48.83099386	    110.60495833	     -1.41377183	    -10.81199259	    -12.29083209	     48.42124828	    107.58515249
      1.45000000	     -6.64070120	      0.00153400	     -6.35371558	      1.36039168	      1.13624538	     -0.21931049	     23.44880174	      6.12816434	      0.20009813	      7.56634853	      0.13205769	      2.92121579	      2.70520284	     -7.17839469	    -11.61886284	      2.96203888	    -10.52459700	      5.47524684	      0.09556108	      4.10231158	     10.51990255	     -7.17839469	    -15.71638968	    -13.47189299	     -2.79865734	    -20.02503653	    -10.20682085	     -7.98670421	     48.79838469	    110.61332887	     -1.92941496	    -10.56374094	    -12.25092963	     47.89097966	    107.58171691
      1.46000000	     -6.91635577	     -0.08368450	     -5.92372440	      1.37174306	      1.13473244	     -0.21976373	     23.65125764	      6.21060311	      1.05976858	      8.31673436	      0.14515440	      1.18581460	      0.30138971	     -7.19333706	    -11.28447467	      2.55124338	    -10.79750315	      6.69048063	      0.11677092	      4.27617301	     11.53441515	     -7.19333706	    -15.32228932	    -12.66042836	     -2.82961951	    -19.94843319	    -10.19080637	     -8.35688399	     48.58908680	    110.71218380	     -2.44137209	    -10.29647131	    -12.22676793	     47.35935825	    107.70439381
